<svg xmlns="http://www.w3.org/2000/svg" width="195" height="32" viewBox="0 0 195 32" fill="white">
<g clip-path="url(#clip0_582_675)">
<path d="M36.3794 3.18617L32.9198 4.89994V7.47462L18.1983 14.7883L7.84346 9.51828V19.9296L3.46875 22.102V0H5.65209V3.25858L18.1983 9.77575L32.9198 2.77583L35.5606 1.52067L36.3794 3.18617Z" fill="white"/>
<path d="M0 28.8224L3.45963 27.1005V24.5339L18.1811 17.2121L28.5359 22.4902V12.0708L32.9106 9.89844V32.0005H30.7273V28.7419L18.1811 22.2247L3.45963 29.2246L0.818752 30.4798L0 28.8224Z" fill="white"/>
<mask id="mask0_582_675" style="mask-type:luminance" maskUnits="userSpaceOnUse" x="47" y="5" width="148" height="22">
<path d="M194.998 5.86719H47.7578V26.1345H194.998V5.86719Z" fill="white"/>
</mask>
<g mask="url(#mask0_582_675)">
<path d="M70.8835 5.875L62.0056 17.791L53.1278 5.875H47.7578V26.1345H53.2161V14.6128L62.0056 25.8529L70.7952 14.6128V26.1345H76.2535V5.875H70.8835Z" fill="white"/>
<path d="M158.922 5.875L150.053 17.791L141.175 5.875H135.797V26.1345H141.263V14.6128L150.053 25.8529L158.834 14.6128V26.1345H164.3V5.875H158.922Z" fill="white"/>
<path d="M102.904 10.3002V5.875H79.9062V26.1345H102.904V21.7093H85.2843V18.0243H99.7169V13.9531H85.2843V10.3002H102.904Z" fill="white"/>
<path d="M123.067 17.8234H115.843L119.463 11.2901L123.067 17.8234ZM122.329 5.86719H116.574L105.336 26.1267H111.268L113.515 22.1038H125.451L127.699 26.1267H133.631L122.329 5.86719Z" fill="white"/>
<path d="M184.435 17.8234H177.21L180.83 11.2901L184.435 17.8234ZM183.688 5.86719H177.941L166.703 26.1267H172.635L174.89 22.1038H186.819L189.074 26.1267H194.998L183.688 5.86719Z" fill="white"/>
</g>
</g>
<defs>
<clipPath id="clip0_582_675">
<rect width="195" height="32" fill="white"/>
</clipPath>
</defs>
</svg>